<svg width="40" height="40" viewBox="0 0 40 40" fill="none" xmlns="http://www.w3.org/2000/svg">
<path fill-rule="evenodd" clip-rule="evenodd" d="M10 35.8325V31.1825C8.42484 29.7768 7.16498 28.0537 6.30323 26.1264C5.44148 24.1991 4.99734 22.1112 5.00001 20C5.00001 15.5575 6.93001 11.565 10 8.82V4.1675C10 1.8675 11.865 0 14.1675 0H25.8325C28.1325 0 30 1.865 30 4.1675V8.8175C31.5752 10.2232 32.835 11.9463 33.6968 13.8736C34.5585 15.8009 35.0027 17.8888 35 20C35.0023 22.1108 34.558 24.1982 33.6963 26.125C32.8345 28.0519 31.5749 29.7746 30 31.18V35.8325C30 38.1325 28.135 40 25.8325 40H14.1675C11.8675 40 10 38.135 10 35.8325ZM32.5 20C32.5 16.6848 31.1831 13.5054 28.8388 11.1612C26.4946 8.81696 23.3152 7.5 20 7.5C16.6848 7.5 13.5054 8.81696 11.1612 11.1612C8.81697 13.5054 7.50001 16.6848 7.50001 20C7.50001 23.3152 8.81697 26.4946 11.1612 28.8388C13.5054 31.183 16.6848 32.5 20 32.5C23.3152 32.5 26.4946 31.183 28.8388 28.8388C31.1831 26.4946 32.5 23.3152 32.5 20Z" fill="#008DD2"/>
<path d="M36.25 18.75C36.25 18.0596 35.6904 17.5 35 17.5C34.3096 17.5 33.75 18.0596 33.75 18.75V21.25C33.75 21.9404 34.3096 22.5 35 22.5C35.6904 22.5 36.25 21.9404 36.25 21.25V18.75Z" fill="#008DD2"/>
<path fill-rule="evenodd" clip-rule="evenodd" d="M20 11.25C20.3315 11.25 20.6495 11.3817 20.8839 11.6161C21.1183 11.8505 21.25 12.1685 21.25 12.5V20C21.25 20.3315 21.1183 20.6495 20.8839 20.8839C20.6495 21.1183 20.3315 21.25 20 21.25H15C14.6685 21.25 14.3505 21.1183 14.1161 20.8839C13.8817 20.6495 13.75 20.3315 13.75 20C13.75 19.6685 13.8817 19.3505 14.1161 19.1161C14.3505 18.8817 14.6685 18.75 15 18.75H18.75V12.5C18.75 12.1685 18.8817 11.8505 19.1161 11.6161C19.3505 11.3817 19.6685 11.25 20 11.25V11.25Z" fill="#008DD2"/>
</svg>
