<svg width="40" height="40" viewBox="0 0 40 40" fill="none" xmlns="http://www.w3.org/2000/svg">
<path d="M19.9995 24.544C22.5094 24.544 24.544 22.5094 24.544 19.9995C24.544 17.4897 22.5094 15.4551 19.9995 15.4551C17.4897 15.4551 15.4551 17.4897 15.4551 19.9995C15.4551 22.5094 17.4897 24.544 19.9995 24.544Z" fill="#008DD2"/>
<path d="M19.9992 8.69922C17.7643 8.69922 15.5796 9.36195 13.7213 10.6036C11.863 11.8453 10.4147 13.6101 9.55939 15.6749C8.70411 17.7397 8.48034 20.0118 8.91635 22.2037C9.35236 24.3957 10.4286 26.4092 12.0089 27.9895C13.5893 29.5699 15.6027 30.6461 17.7947 31.0821C19.9867 31.5181 22.2587 31.2943 24.3235 30.4391C26.3884 29.5838 28.1532 28.1354 29.3948 26.2772C30.6365 24.4189 31.2992 22.2341 31.2992 19.9992C31.2963 17.0032 30.1048 14.1307 27.9863 12.0122C25.8678 9.89364 22.9953 8.70216 19.9992 8.69922V8.69922ZM19.9992 26.477C18.7047 26.477 17.4394 26.0923 16.3638 25.372C15.2882 24.6516 14.4509 23.6279 13.9581 22.4309C13.4653 21.2338 13.3392 19.9173 13.5958 18.6485C13.8524 17.3797 14.4802 16.2157 15.3995 15.3042C16.3187 14.3928 17.488 13.7749 18.759 13.5292C20.03 13.2834 21.3454 13.4207 22.5382 13.9237C23.731 14.4268 24.7474 15.2728 25.4586 16.3545C26.1698 17.4362 26.5436 18.7047 26.5326 19.9992C26.5326 21.732 25.8442 23.3937 24.619 24.619C23.3938 25.8442 21.732 26.5326 19.9992 26.5326V26.477Z" fill="#008DD2"/>
<path d="M20.0004 2.22266C16.4843 2.22266 13.0472 3.2653 10.1236 5.21875C7.2001 7.1722 4.92147 9.94871 3.57592 13.1972C2.23036 16.4456 1.8783 20.0202 2.56426 23.4687C3.25022 26.9173 4.94339 30.085 7.42966 32.5712C9.91592 35.0575 13.0836 36.7507 16.5322 37.4366C19.9807 38.1226 23.5552 37.7705 26.8037 36.425C30.0522 35.0794 32.8287 32.8008 34.7821 29.8772C36.7356 26.9537 37.7782 23.5165 37.7782 20.0004C37.7782 15.2855 35.9052 10.7636 32.5712 7.42965C29.2373 4.09567 24.7154 2.22266 20.0004 2.22266V2.22266ZM20.0004 33.1449C17.4007 33.1449 14.8594 32.374 12.6978 30.9296C10.5362 29.4853 8.85143 27.4324 7.85656 25.0306C6.86169 22.6288 6.60138 19.9859 7.10856 17.4361C7.61575 14.8863 8.86763 12.5442 10.7059 10.7059C12.5442 8.86763 14.8863 7.61574 17.4361 7.10856C19.9859 6.60138 22.6288 6.86168 25.0306 7.85655C27.4324 8.85142 29.4853 10.5362 30.9296 12.6978C32.374 14.8594 33.1449 17.4007 33.1449 20.0004C33.139 23.4848 31.7523 26.8247 29.2885 29.2885C26.8247 31.7523 23.4848 33.139 20.0004 33.1449V33.1449Z" fill="#008DD2"/>
</svg>
