<svg width="40" height="40" viewBox="0 0 40 40" fill="none" xmlns="http://www.w3.org/2000/svg">
<path d="M21.6673 10.0007C23.5083 10.0007 25.0007 8.50827 25.0007 6.66732C25.0007 4.82637 23.5083 3.33398 21.6673 3.33398C19.8264 3.33398 18.334 4.82637 18.334 6.66732C18.334 8.50827 19.8264 10.0007 21.6673 10.0007Z" fill="#008DD2"/>
<path d="M23.2968 20.4508C23.7051 21.0642 24.3151 21.5292 25.0151 21.7625L29.4735 23.2492L30.5285 20.0892L26.0701 18.6025L23.2985 14.4442C22.976 13.9627 22.5345 13.5729 22.0168 13.3125L19.6268 12.1175C18.9158 11.762 18.1007 11.6739 17.3301 11.8692L12.0085 13.1975C11.5414 13.3139 11.105 13.5299 10.7293 13.8308C10.3535 14.1318 10.0474 14.5104 9.8318 14.9408L6.8418 20.9225L9.82346 22.4141L12.8135 16.4325L16.5185 15.5058L13.5118 29.4158L7.38846 33.6275L9.2768 36.3741L15.4018 32.1608C16.1035 31.6775 16.5901 30.9525 16.7685 30.1191L17.6301 26.1391L21.8251 29.2858L23.3668 36.9941L26.6351 36.3391L25.0935 28.6275C24.9316 27.8242 24.4795 27.1086 23.8235 26.6175L20.2051 23.9042L21.2835 17.4292L23.2968 20.4508V20.4508Z" fill="#008DD2"/>
</svg>
