<svg width="113" height="111" viewBox="0 0 113 111" fill="none" xmlns="http://www.w3.org/2000/svg">
<path d="M96.5134 86.3799C96.2611 86.6505 95.9644 86.866 95.7047 87.1298C95.1523 87.7222 94.5492 88.281 93.9967 88.8734C92.6648 90.2236 90.9074 91.0722 89.0217 91.2759C87.2181 91.5742 85.3699 91.4486 83.6232 90.9091C81.8765 90.3696 80.2794 89.4309 78.9581 88.1675C77.6563 86.9535 76.3545 85.7395 75.0527 84.5256C74.8952 84.3746 74.7082 84.2576 74.5035 84.182C74.2988 84.1064 74.0807 84.0737 73.8628 84.086C72.0167 84.101 70.173 84.1866 68.3595 84.1225C65.5955 83.9926 62.8316 83.8627 60.0949 83.4984C57.8171 83.2287 55.5706 82.7409 53.3861 82.0417C51.0898 81.2801 48.8677 80.311 46.7473 79.1462C42.9464 77.0785 39.2657 74.8085 35.5033 72.6262C34.0301 71.772 32.4828 71.0265 31.0008 70.1231C30.2286 69.6536 29.6042 68.976 29.1993 68.1679C28.7945 67.3599 28.6254 66.4542 28.7116 65.5545C28.7333 63.6277 29.519 61.7883 30.8962 60.4406C31.2098 60.131 31.5832 59.8886 31.9937 59.7283C32.4041 59.568 32.843 59.4931 33.2834 59.5081C34.9083 59.5041 36.5303 59.6439 38.1305 59.9261C38.8169 60.0803 39.5133 60.1861 40.2146 60.2425L39.8051 59.8606L29.0208 49.2845C24.4634 44.8022 19.8855 40.3418 15.3968 35.8005C14.7931 35.0556 14.3616 34.1864 14.1334 33.2551C13.5294 31.7487 13.5341 30.0666 14.1464 28.5636C14.4618 27.8287 14.9596 27.1864 15.5925 26.6975C16.2254 26.2086 16.9727 25.8894 17.7634 25.7699C18.5897 25.6159 19.4255 25.5182 20.265 25.4774C20.9544 25.4639 21.639 25.5961 22.2739 25.8653C22.9087 26.1345 23.4796 26.5347 23.9492 27.0397C26.4548 29.2942 28.9399 31.5706 31.425 33.847L37.1925 39.1431C37.368 39.3068 37.5435 39.4705 37.8068 39.716C38.0565 38.9644 38.2658 38.2708 38.5053 37.6327C38.7194 37.0046 39.064 36.429 39.5166 35.9436C39.9691 35.4583 40.5193 35.0744 41.131 34.817C41.5016 34.6542 41.8851 34.5225 42.2776 34.4232C43.5708 34.0964 44.9328 34.1697 46.1834 34.6335L46.7918 34.8316C46.9747 34.1955 47.1441 33.574 47.3422 32.9657C47.4061 32.6852 47.5269 32.4209 47.6971 32.1891C48.259 31.4787 48.8904 30.8262 49.5819 30.2413C50.5248 29.5576 51.6768 29.2246 52.8391 29.2997C55.3525 29.3464 57.1895 30.6902 59.0085 32.1267L59.1767 32.2835L59.3492 32.3624C59.3991 32.1116 59.4304 31.8575 59.443 31.6021C59.3393 29.6458 60.4285 28.4191 61.9818 27.5158C63.0446 26.8579 64.2863 26.5484 65.5336 26.6304C66.7808 26.7124 67.9713 27.1819 68.9388 27.9733C71.5569 30.2097 74.1069 32.5192 76.6296 34.858C80.9226 38.8613 85.1679 42.9158 89.516 46.8748C90.5014 47.9243 91.302 49.1332 91.8838 50.4501C93.0505 52.6593 94.0847 54.9227 95.1823 57.1768L95.2481 57.2382C95.4623 58.9146 96.6505 59.9132 97.7768 60.9635C99.2907 62.3752 100.744 63.8669 102.175 65.3523C103.085 66.3585 103.779 67.5408 104.214 68.8258C104.936 70.6754 105.176 72.6779 104.912 74.6457C104.699 76.5366 103.891 78.3112 102.606 79.7144C102.482 79.8701 102.369 80.0348 102.269 80.2073L96.5134 86.3799ZM77.1446 40.288L77.2197 40.2076C74.1041 37.3023 70.9885 34.397 67.873 31.4916C66.9661 30.646 66.1158 30.0035 64.8332 30.3525C64.7578 30.3608 64.6815 30.3587 64.6066 30.3463C64.1499 30.42 63.7346 30.6545 63.4355 31.0074C63.1365 31.3604 62.9734 31.8085 62.9757 32.2711C63.2542 33.347 63.757 34.3518 64.4513 35.2196C65.0258 36.0698 65.6412 36.8761 66.1436 37.6864C66.3499 37.9557 66.449 38.292 66.4216 38.6302C66.3942 38.9684 66.2423 39.2844 65.9952 39.517C65.7924 39.802 65.4862 39.9964 65.142 40.0586C64.7978 40.1209 64.4429 40.0461 64.1531 39.8502C62.5117 38.8391 60.8912 37.8203 59.3243 36.7146C57.7574 35.609 56.2368 34.4097 54.6694 33.29C54.332 32.993 53.9044 32.8184 53.4555 32.7943C53.0067 32.7702 52.5628 32.898 52.1955 33.157C51.5974 33.6155 51.0597 34.1478 50.5952 34.7412C50.3897 34.9994 50.2844 35.3231 50.2985 35.6528C50.3126 35.9824 50.4452 36.2959 50.672 36.5357C51.1216 37.0506 51.6194 37.5285 52.0665 37.9728C52.9075 38.7571 53.7486 39.5414 54.5005 40.4066C54.6525 40.5758 54.7676 40.7747 54.8386 40.9907C54.9095 41.2068 54.9348 41.4352 54.9128 41.6615C54.8907 41.8879 54.8219 42.1071 54.7106 42.3054C54.5992 42.5037 54.4479 42.6767 54.2662 42.8134C54.0829 42.9924 53.8494 43.1114 53.5968 43.1543C53.3442 43.1973 53.0845 43.1622 52.8524 43.0538C51.9413 42.4912 51.0433 41.9 50.1453 41.3087C48.4 40.1598 46.6683 38.9962 44.9435 37.8253C44.6839 37.6388 44.3712 37.5406 44.0516 37.5454C43.732 37.5502 43.4224 37.6577 43.1685 37.8519C42.8094 38.0786 42.4937 38.3676 42.2361 38.7052C40.9902 40.5105 41.1124 41.3765 42.212 42.6753L45.5205 46.6494C45.8458 47.0484 46.1564 47.4338 46.469 47.8757C46.6734 48.2255 46.7668 48.6293 46.7367 49.0334C46.7066 49.4375 46.5544 49.8229 46.3004 50.1386C45.9645 50.3713 45.5626 50.4895 45.1543 50.4757C44.746 50.4619 44.353 50.3169 44.0336 50.0621L23.825 31.5865C22.9354 30.7477 21.9984 29.9606 21.0186 29.2293C20.695 28.9794 20.3075 28.8256 19.9006 28.7854C19.4937 28.7452 19.0836 28.8203 18.7173 29.0021C18.351 29.1838 18.0432 29.465 17.8291 29.8133C17.615 30.1617 17.5032 30.5633 17.5064 30.9722C17.4492 31.4607 17.5002 31.9559 17.6559 32.4224C17.8116 32.889 18.0682 33.3156 18.4073 33.6718C20.9452 36.2436 23.4689 38.8158 26.0409 41.3509C31.1488 46.4013 36.2981 51.4218 41.4197 56.4575C44.6801 59.662 47.9406 62.8665 51.1806 66.093C51.5679 66.4548 51.8402 66.9227 51.9634 67.4383C52.0039 67.7295 51.9659 68.0263 51.8532 68.298C51.7405 68.5696 51.5573 68.8062 51.3225 68.9832C51.0877 69.1602 50.8098 69.2713 50.5177 69.3049C50.2255 69.3385 49.9297 69.2934 49.6608 69.1743C48.6115 68.7669 47.596 68.2772 46.6239 67.7096C45.1141 66.8213 43.7168 65.7097 42.1681 64.9219C39.7443 63.7038 37.074 63.0565 34.3615 63.0294C33.8573 62.9963 33.3564 63.1324 32.9383 63.4162C32.5201 63.6999 32.2086 64.1151 32.0531 64.5959C31.8762 65.0259 31.8478 65.5027 31.9724 65.9507C32.0969 66.3987 32.3674 66.7924 32.7409 67.0694C33.0231 67.2506 33.2917 67.4464 33.595 67.6198C35.5357 68.6912 37.4895 69.7338 39.417 70.8339C42.5146 72.6148 45.557 74.4402 48.6238 76.1515C51.3073 77.7245 54.2384 78.8303 57.2922 79.4218C59.214 79.7509 61.1553 80.0298 63.1 80.2025C65.0447 80.3751 67.2481 80.4609 69.3019 80.5166C71.1637 80.5435 73.0288 80.4642 74.8803 80.3996C75.0903 80.3818 75.3017 80.4087 75.5005 80.4786C75.6993 80.5485 75.881 80.6598 76.0336 80.8051C78.1662 82.7117 80.3198 84.6105 82.4733 86.5093C83.2101 87.1307 84.0742 87.5829 85.0047 87.834C85.9353 88.0851 86.9095 88.1291 87.8589 87.9628C89.0891 87.8425 90.2311 87.2707 91.0646 86.3579C94.2473 82.9449 97.4299 79.5319 100.613 76.119C100.743 75.9884 100.845 75.8333 100.915 75.6627C101.304 74.687 101.512 73.6489 101.53 72.5988C101.524 70.8445 100.842 69.1601 99.625 67.8965C97.3602 65.6478 95.0754 63.4351 92.811 61.2006C92.5876 60.9663 92.4204 60.6842 92.3223 60.3757C92.1169 59.7602 92.0372 59.0979 91.7903 58.5122C90.9141 56.5192 90.0447 54.519 89.0867 52.6138C88.6039 51.4718 87.9256 50.4228 87.0823 49.514C83.7351 46.4611 80.443 43.3638 77.1446 40.288Z" fill="#FBFBFB"/>
</svg>
