<svg width="72" height="20" viewBox="0 0 72 20" fill="none" xmlns="http://www.w3.org/2000/svg">
<path d="M19.01 5.42176C20.54 3.86176 22.12 2.27176 23.67 0.671757C23.8774 0.449186 24.1304 0.274077 24.4117 0.158432C24.6931 0.0427871 24.9961 -0.0106571 25.3 0.00175847C32.35 0.00175847 39.4 0.00175847 46.44 0.00175847C46.7503 -0.00656713 47.0541 0.0923175 47.3 0.281757C48.99 1.90176 50.66 3.54176 52.3 5.17176C52.3574 5.23858 52.4108 5.3087 52.46 5.38176C51.98 5.66176 51.66 5.38176 51.35 5.12176C49.98 3.83176 48.6 2.55176 47.25 1.24176C47.1134 1.0992 46.9459 0.989902 46.7604 0.922287C46.5749 0.854671 46.3763 0.830541 46.18 0.851757C43.94 0.991757 41.7 1.08176 39.46 1.21176C36.88 1.36176 34.3 1.53176 31.72 1.70176C29.58 1.84176 27.44 1.98176 25.3 2.15176C24.943 2.21021 24.6023 2.34309 24.3 2.54176C22.73 3.43176 21.18 4.37176 19.61 5.27176C19.4197 5.35454 19.2169 5.40522 19.01 5.42176V5.42176Z" fill="#0889C8"/>
<path d="M28.1999 14L32.4099 16.16C33.5599 16.76 34.7099 17.37 35.8699 17.95C35.9726 17.9943 36.0832 18.0172 36.1949 18.0172C36.3067 18.0172 36.4173 17.9943 36.5199 17.95C37.4399 17.47 38.3299 16.95 39.2299 16.43C39.3999 16.33 39.5899 16.26 39.7699 16.17L40.2099 16.25L39.7599 16.88L36.7899 19C36.7899 19 36.6699 19 36.6299 19.08C36.5242 19.2321 36.3859 19.3588 36.2252 19.4509C36.0644 19.543 35.8852 19.5983 35.7005 19.6126C35.5158 19.627 35.3302 19.6001 35.1572 19.5339C34.9841 19.4678 34.8279 19.3639 34.6999 19.23C32.6399 17.66 30.5099 16.23 28.4099 14.68L27.9299 14H28.1999Z" fill="#0B87C4"/>
<path d="M11.9699 7.99993C12.1719 7.92885 12.3926 7.93209 12.5923 8.00907C12.7921 8.08604 12.9579 8.23171 13.0599 8.41993C13.5499 9.07993 14.0599 9.69993 14.6499 10.4199C15.1899 9.74993 15.7199 9.12993 16.1999 8.41993C16.2916 8.22463 16.4549 8.07208 16.6559 7.99388C16.857 7.91569 17.0804 7.91786 17.2799 7.99993V11.2999H16.4099V9.42993L15.2099 10.9299C15.1482 11.0249 15.0637 11.1028 14.9642 11.1568C14.8646 11.2108 14.7532 11.2391 14.6399 11.2391C14.5267 11.2391 14.4153 11.2108 14.3157 11.1568C14.2162 11.1028 14.1317 11.0249 14.0699 10.9299L12.7899 9.42993V11.3199H11.9399L11.9699 7.99993Z" fill="#FBFBFB"/>
<path d="M20.4202 7.88989H21.3101C21.533 7.87813 21.7557 7.91369 21.9638 7.99423C22.1719 8.07477 22.3605 8.19847 22.5174 8.35718C22.6742 8.51589 22.7956 8.70601 22.8736 8.91504C22.9517 9.12406 22.9846 9.34724 22.9701 9.56989C22.9978 9.7909 22.9771 10.0153 22.9096 10.2275C22.8421 10.4398 22.7293 10.6348 22.5792 10.7993C22.429 10.9638 22.2449 11.0937 22.0396 11.1801C21.8343 11.2665 21.6127 11.3074 21.3901 11.2999C20.6919 11.3699 19.9884 11.3699 19.2901 11.2999C19.0829 11.2871 18.8806 11.2312 18.6963 11.1356C18.512 11.0401 18.3496 10.9071 18.2197 10.7452C18.0897 10.5832 17.9951 10.3959 17.9418 10.1952C17.8885 9.99456 17.8777 9.78497 17.9101 9.5799C17.8962 9.18392 18.0364 8.79797 18.3012 8.50328C18.5661 8.20859 18.9349 8.02813 19.3302 7.99989C19.7102 7.90989 20.0902 7.90989 20.4202 7.88989ZM20.4202 10.6099C20.6802 10.6099 20.9401 10.6099 21.2001 10.6099C21.8401 10.5599 22.0601 10.3299 22.0701 9.70989C22.0801 9.08989 21.8801 8.76989 21.2301 8.70989C20.754 8.67989 20.2763 8.67989 19.8001 8.70989C19.0701 8.70989 18.8001 9.01989 18.8001 9.70989C18.8001 10.3999 19.0501 10.5799 19.8001 10.6199L20.4202 10.6099Z" fill="#FBFBFB"/>
<path d="M35.71 11.3201V8.00009C36.8059 7.94496 37.904 7.94496 39 8.00009C39.93 8.09009 40.32 8.72009 40.29 9.71009C40.3051 9.90692 40.2794 10.1048 40.2144 10.2912C40.1493 10.4776 40.0464 10.6485 39.9121 10.7931C39.7778 10.9378 39.6149 11.0531 39.4339 11.1317C39.2528 11.2104 39.0574 11.2507 38.86 11.2501C37.79 11.3601 36.79 11.3201 35.71 11.3201ZM36.61 10.5901C37.33 10.5901 37.99 10.5901 38.61 10.5901C39.11 10.5901 39.33 10.2301 39.34 9.75009C39.35 9.27009 39.28 8.81009 38.71 8.75009C38.14 8.69009 37.29 8.75009 36.57 8.75009L36.61 10.5901Z" fill="#FBFBFB"/>
<path d="M0 11.3301V8.00006C1 8.00006 2.06 7.94006 3.07 8.00006C3.4917 8.04537 3.88036 8.24943 4.1571 8.57083C4.43384 8.89223 4.57792 9.30689 4.56011 9.73065C4.54229 10.1544 4.36391 10.5555 4.06117 10.8525C3.75843 11.1496 3.35401 11.3203 2.93 11.3301C1.98 11.3601 1.02 11.3301 0 11.3301ZM0.88 10.5901C1.58 10.5901 2.25 10.5901 2.93 10.5901C3.44 10.5901 3.64 10.2301 3.64 9.73005C3.64 9.23005 3.58 8.80005 3 8.73005C2.42 8.66005 1.58 8.73005 0.88 8.73005V10.5901Z" fill="#FBFBFB"/>
<path d="M41.7899 10V10.62H44.7899V11.33H40.9199V8H44.7899V8.66H41.8899V9.26H43.8899V9.99L41.7899 10Z" fill="#FBFBFB"/>
<path d="M28.9399 8C29.9399 8 30.9399 8 31.8699 8C32.2918 8.03262 32.6859 8.22324 32.9733 8.53377C33.2607 8.8443 33.4204 9.25186 33.4204 9.675C33.4204 10.0981 33.2607 10.5057 32.9733 10.8162C32.6859 11.1268 32.2918 11.3174 31.8699 11.35C31.0099 11.35 30.1499 11.35 29.2899 11.35H28.9799L28.9399 8ZM29.7899 10.6C30.4999 10.6 31.1399 10.6 31.7899 10.6C32.4399 10.6 32.5699 10.28 32.5799 9.75C32.5899 9.22 32.5099 8.75 31.8999 8.75C31.2899 8.75 30.5099 8.75 29.7999 8.75L29.7899 10.6Z" fill="#FBFBFB"/>
<path d="M27.2401 10.2501V8.00008H28.0701V11.4801C27.6898 11.3619 27.3241 11.2008 26.9801 11.0001C26.1501 10.4101 25.3701 9.76008 24.4801 9.07008V11.2901H23.6101V7.83008C23.9923 7.93884 24.3613 8.08976 24.7101 8.28008C25.5401 8.88008 26.3201 9.53008 27.2401 10.2501Z" fill="#FBFBFB"/>
<path d="M71.3199 8V8.66C70.4899 8.66 69.6699 8.66 68.8599 8.66C68.0499 8.66 67.7899 9.05 67.8599 9.83C67.8671 10.0116 67.9419 10.1841 68.0695 10.3135C68.1971 10.443 68.3684 10.5202 68.5499 10.53C68.7499 10.53 68.9499 10.53 69.1499 10.53H70.4999V9.53H71.3299V11.19C70.3299 11.19 69.1999 11.26 68.1399 11.19C67.3199 11.11 66.9399 10.49 66.9399 9.59C66.9399 8.69 67.3099 8.09 68.1499 8C69.2199 8 70.2599 8 71.3199 8Z" fill="#FBFBFB"/>
<path d="M61.8401 7.79004C62.2472 7.93041 62.6392 8.11132 63.0101 8.33004C63.8301 8.92004 64.6101 9.56004 65.5101 10.26V8.00004H66.3501V11.49C65.9519 11.3727 65.5692 11.2082 65.2101 11C64.3801 10.4 63.5801 9.75004 62.6801 9.00004V11.27H61.8401V7.79004Z" fill="#FBFBFB"/>
<path d="M11.6501 11.3201C11.0901 11.3201 10.6001 11.5001 10.3301 10.9101C10.297 10.864 10.2535 10.8264 10.2031 10.8003C10.1527 10.7743 10.0969 10.7605 10.0401 10.7601C9.36013 10.7601 8.68013 10.7601 7.99013 10.7601C7.87425 10.7685 7.7664 10.8224 7.69013 10.9101C7.43013 11.4801 6.94013 11.3801 6.38013 11.3301C7.12013 10.2201 7.83013 9.15009 8.57013 8.10009C8.63841 8.02999 8.72208 7.97676 8.81452 7.94462C8.90695 7.91247 9.0056 7.90231 9.10265 7.91493C9.1997 7.92754 9.29247 7.96259 9.37361 8.0173C9.45476 8.072 9.52204 8.14486 9.57013 8.2301L11.6501 11.3201ZM8.29013 10.0001H9.72013L9.00013 8.9301L8.29013 10.0001Z" fill="#FBFBFB"/>
<path d="M48.5601 11.31L50.6601 8.22005C50.7163 8.13959 50.7911 8.07389 50.8781 8.02853C50.9652 7.98316 51.0619 7.95947 51.1601 7.95947C51.2582 7.95947 51.3549 7.98316 51.442 8.02853C51.529 8.07389 51.6038 8.13959 51.6601 8.22005C52.3701 9.22005 53.0601 10.22 53.7901 11.33C53.2501 11.39 52.7901 11.54 52.4701 10.92C52.4701 10.84 52.2401 10.79 52.1101 10.78C51.4701 10.78 50.8301 10.78 50.1901 10.78C50.0701 10.78 49.8801 10.84 49.8401 10.93C49.5901 11.49 49.1101 11.36 48.5601 11.31ZM51.1801 8.90005L50.4901 10H51.9001L51.1801 8.90005Z" fill="#FBFBFB"/>
<path d="M59.6001 10.59V11.32H55.8401V8H56.7001V10.6L59.6001 10.59Z" fill="#FBFBFB"/>
<path d="M49.2901 8V8.67H47.6501V11.32H46.7901V8.72H45.1001V8H49.2901Z" fill="#FBFBFB"/>
<path d="M55.0101 11.32H54.1501V8H55.0101V11.32Z" fill="#FBFBFB"/>
<path d="M6.00996 11.32H5.20996V8H6.00996V11.32Z" fill="#FBFBFB"/>
<path d="M60.1602 8H60.9802V11.3H60.1602V8Z" fill="#FBFBFB"/>
<path d="M39.79 16.8501L40.24 16.2201L39.79 16.1401C40.4 15.7601 41.01 15.3501 41.64 14.9901C42.05 14.7501 42.49 14.5701 42.92 14.3701L43.07 14.6101L42.07 15.3101C41.42 15.7801 40.78 16.2601 40.13 16.7201C40.023 16.7784 39.9087 16.8221 39.79 16.8501V16.8501Z" fill="#177CAC"/>
<path d="M28.2001 14.0001H27.9301L28.4501 14.6701C27.706 14.4378 27.0526 13.98 26.5801 13.3601C26.8831 13.2963 27.1982 13.3229 27.4862 13.4367C27.7743 13.5505 28.0225 13.7464 28.2001 14.0001V14.0001Z" fill="#1D769D"/>
</svg>
