<svg width="40" height="40" viewBox="0 0 40 40" fill="none" xmlns="http://www.w3.org/2000/svg">
<path d="M21.6659 10H23.3325V8.33333C23.3325 7.89131 23.1569 7.46738 22.8444 7.15482C22.5318 6.84226 22.1079 6.66667 21.6659 6.66667H16.6659C16.2238 6.66667 15.7999 6.84226 15.4874 7.15482C15.1748 7.46738 14.9992 7.89131 14.9992 8.33333V10H16.6659V13.4533L7.14087 29.95C6.83695 30.4559 6.67277 31.0333 6.66512 31.6234C6.65746 32.2135 6.80659 32.795 7.09727 33.3086C7.38796 33.8222 7.80977 34.2494 8.31962 34.5465C8.82947 34.8437 9.40907 35.0002 9.9992 35H28.3325C28.9227 35.0002 29.5023 34.8437 30.0121 34.5465C30.522 34.2494 30.9438 33.8222 31.2345 33.3086C31.5251 32.795 31.6743 32.2135 31.6666 31.6234C31.659 31.0333 31.4948 30.4559 31.1909 29.95L21.6659 13.4533V10ZM9.9992 36.6667C9.09903 36.6669 8.2155 36.4241 7.44186 35.9639C6.66822 35.5037 6.03317 34.8431 5.60372 34.052C5.17428 33.2609 4.96638 32.3685 5.00195 31.469C5.03753 30.5696 5.31528 29.6964 5.80587 28.9417L14.9992 13.0183V11.6667C14.5572 11.6667 14.1333 11.4911 13.8207 11.1785C13.5081 10.866 13.3325 10.442 13.3325 10V8.33333C13.3325 7.44928 13.6837 6.60143 14.3088 5.97631C14.934 5.35119 15.7818 5 16.6659 5H21.6659C22.5499 5 23.3978 5.35119 24.0229 5.97631C24.648 6.60143 24.9992 7.44928 24.9992 8.33333V10C24.9992 10.442 24.8236 10.866 24.511 11.1785C24.1985 11.4911 23.7746 11.6667 23.3325 11.6667V13.0183L32.5259 28.9417C33.0165 29.6964 33.2942 30.5696 33.3298 31.469C33.3654 32.3685 33.1575 33.2609 32.728 34.052C32.2986 34.8431 31.6635 35.5037 30.8899 35.9639C30.1162 36.4241 29.2327 36.6669 28.3325 36.6667H9.9992ZM20.4892 25.4867L23.1992 22.7767L28.3325 31.6667H9.9992L16.0992 21.1L20.4892 25.4867ZM20.4892 27.8433L16.4575 23.8133L12.8859 30H25.4459L22.8425 25.49L20.4892 27.8433ZM19.9992 16.6667C20.4412 16.6667 20.8652 16.8423 21.1777 17.1548C21.4903 17.4674 21.6659 17.8913 21.6659 18.3333C21.6659 18.7754 21.4903 19.1993 21.1777 19.5118C20.8652 19.8244 20.4412 20 19.9992 20C19.5572 20 19.1333 19.8244 18.8207 19.5118C18.5081 19.1993 18.3325 18.7754 18.3325 18.3333C18.3325 17.8913 18.5081 17.4674 18.8207 17.1548C19.1333 16.8423 19.5572 16.6667 19.9992 16.6667V16.6667Z" fill="#008DD2"/>
</svg>
