<svg width="40" height="40" viewBox="0 0 40 40" fill="none" xmlns="http://www.w3.org/2000/svg">
<path d="M24.168 16.6673C22.7846 16.6673 21.668 15.5507 21.668 14.1673V5.83398C21.668 4.45065 22.7846 3.33398 24.168 3.33398C25.5513 3.33398 26.668 4.45065 26.668 5.83398V14.1673C26.668 15.5507 25.5513 16.6673 24.168 16.6673Z" stroke="#008DD2" stroke-width="3.33333" stroke-linecap="round" stroke-linejoin="round"/>
<path d="M34.168 16.668H31.668V14.168C31.668 12.7846 32.7846 11.668 34.168 11.668C35.5513 11.668 36.668 12.7846 36.668 14.168C36.668 15.5513 35.5513 16.668 34.168 16.668Z" stroke="#008DD2" stroke-width="3.33333" stroke-linecap="round" stroke-linejoin="round"/>
<path d="M15.834 23.334C17.2173 23.334 18.334 24.4507 18.334 25.834V34.1673C18.334 35.5507 17.2173 36.6673 15.834 36.6673C14.4507 36.6673 13.334 35.5507 13.334 34.1673V25.834C13.334 24.4507 14.4507 23.334 15.834 23.334Z" stroke="#008DD2" stroke-width="3.33333" stroke-linecap="round" stroke-linejoin="round"/>
<path d="M5.83398 23.334H8.33398V25.834C8.33398 27.2173 7.21732 28.334 5.83398 28.334C4.45065 28.334 3.33398 27.2173 3.33398 25.834C3.33398 24.4507 4.45065 23.334 5.83398 23.334Z" stroke="#008DD2" stroke-width="3.33333" stroke-linecap="round" stroke-linejoin="round"/>
<path d="M23.334 24.168C23.334 22.7846 24.4507 21.668 25.834 21.668H34.1673C35.5507 21.668 36.6673 22.7846 36.6673 24.168C36.6673 25.5513 35.5507 26.668 34.1673 26.668H25.834C24.4507 26.668 23.334 25.5513 23.334 24.168Z" stroke="#008DD2" stroke-width="3.33333" stroke-linecap="round" stroke-linejoin="round"/>
<path d="M25.834 31.668H23.334V34.168C23.334 35.5513 24.4507 36.668 25.834 36.668C27.2173 36.668 28.334 35.5513 28.334 34.168C28.334 32.7846 27.2173 31.668 25.834 31.668Z" stroke="#008DD2" stroke-width="3.33333" stroke-linecap="round" stroke-linejoin="round"/>
<path d="M16.6673 15.834C16.6673 14.4507 15.5507 13.334 14.1673 13.334H5.83398C4.45065 13.334 3.33398 14.4507 3.33398 15.834C3.33398 17.2173 4.45065 18.334 5.83398 18.334H14.1673C15.5507 18.334 16.6673 17.2173 16.6673 15.834Z" stroke="#008DD2" stroke-width="3.33333" stroke-linecap="round" stroke-linejoin="round"/>
<path d="M14.168 8.33398H16.668V5.83398C16.668 4.45065 15.5513 3.33398 14.168 3.33398C12.7846 3.33398 11.668 4.45065 11.668 5.83398C11.668 7.21732 12.7846 8.33398 14.168 8.33398Z" stroke="#008DD2" stroke-width="3.33333" stroke-linecap="round" stroke-linejoin="round"/>
</svg>
